<svg width="48" height="48" viewBox="0 0 48 48" fill="none" xmlns="http://www.w3.org/2000/svg">
<path d="M39.248 10.1766C36.444 8.8896 33.436 7.9416 30.292 7.3986C30.235 7.3886 30.178 7.4146 30.148 7.4666C29.761 8.1546 29.333 9.0516 29.033 9.7576C25.651 9.2516 22.286 9.2516 18.974 9.7576C18.674 9.0366 18.23 8.1546 17.841 7.4666C17.811 7.4156 17.754 7.3896 17.697 7.3986C14.554 7.9396 11.547 8.8876 8.74098 10.1766C8.71698 10.1866 8.69598 10.2046 8.68198 10.2276C2.97798 18.7496 1.41498 27.0626 2.18198 35.2716C2.18498 35.3116 2.20798 35.3506 2.23898 35.3746C6.00198 38.1386 9.64798 39.8166 13.226 40.9286C13.283 40.9456 13.344 40.9256 13.38 40.8776C14.226 39.7216 14.981 38.5036 15.628 37.2216C15.666 37.1466 15.63 37.0576 15.552 37.0276C14.355 36.5736 13.216 36.0206 12.12 35.3916C12.033 35.3406 12.026 35.2166 12.106 35.1576C12.337 34.9846 12.567 34.8046 12.788 34.6236C12.828 34.5906 12.883 34.5836 12.93 34.6046C20.131 37.8926 27.927 37.8926 35.043 34.6046C35.09 34.5816 35.145 34.5886 35.187 34.6216C35.407 34.8036 35.638 34.9846 35.87 35.1576C35.95 35.2166 35.945 35.3406 35.858 35.3916C34.762 36.0326 33.622 36.5736 32.424 37.0256C32.346 37.0556 32.311 37.1456 32.349 37.2216C33.01 38.5016 33.764 39.7196 34.595 40.8756C34.63 40.9246 34.692 40.9456 34.749 40.9276C38.344 39.8156 41.99 38.1376 45.753 35.3736C45.786 35.3496 45.807 35.3126 45.81 35.2726C46.727 25.7816 44.273 17.5376 39.305 10.2286C39.293 10.2046 39.272 10.1866 39.248 10.1766ZM16.703 30.2726C14.535 30.2726 12.749 28.2826 12.749 25.8376C12.749 23.3926 14.501 21.4026 16.703 21.4026C18.923 21.4026 20.692 23.4106 20.657 25.8376C20.658 28.2816 18.906 30.2726 16.703 30.2726ZM31.324 30.2726C29.156 30.2726 27.37 28.2826 27.37 25.8376C27.37 23.3926 29.122 21.4026 31.324 21.4026C33.544 21.4026 35.313 23.4106 35.278 25.8376C35.278 28.2816 33.544 30.2726 31.324 30.2726Z" fill="white"/>
</svg>
