<svg width="25" height="24" viewBox="0 0 25 24" fill="none" xmlns="http://www.w3.org/2000/svg">
<g clip-path="url(#clip0_150_323)">
<path d="M23.8138 1L13.5156 8.61991L15.4307 4.12928L23.8138 1Z" fill="#E17726"/>
<path d="M0.9495 1.00879L9.31022 4.12963L11.1286 8.67913L0.9495 1.00879ZM19.6685 17.2052L24.2201 17.2919L22.6294 22.6958L17.0753 21.1666L19.6685 17.2052ZM5.06962 17.2052L7.65309 21.1666L2.10844 22.6959L0.527344 17.2919L5.06962 17.2052Z" fill="#E27625"/>
<path d="M10.882 7.52064L11.068 13.5284L5.50195 13.2752L7.0852 10.8866L7.10527 10.8637L10.882 7.52064ZM13.7998 7.45361L17.6341 10.8639L17.654 10.8867L19.2373 13.2753L13.6725 13.5284L13.7998 7.45361ZM7.81673 17.223L10.8559 19.5911L7.32548 21.2955L7.81673 17.223ZM16.9232 17.2226L17.4043 21.2956L13.8837 19.5909L16.9232 17.2226Z" fill="#E27625"/>
<path d="M13.961 19.3677L17.5335 21.0976L14.2103 22.6769L14.2448 21.6331L13.961 19.3677ZM10.7766 19.3684L10.5038 21.616L10.5263 22.6756L7.19531 21.0976L10.7766 19.3684Z" fill="#D5BFB2"/>
<path d="M9.74484 14.3125L10.6784 16.2745L7.5 15.3434L9.74484 14.3125ZM14.9934 14.3127L17.2489 15.3434L14.0601 16.2742L14.9934 14.3127Z" fill="#233447"/>
<path d="M8.05848 17.2027L7.54473 21.4252L4.79102 17.295L8.05848 17.2027ZM16.6788 17.2028L19.9464 17.295L17.1823 21.4254L16.6788 17.2028ZM19.3165 13.0361L16.9386 15.4597L15.1051 14.6218L14.2273 16.4672L13.6519 13.2939L19.3165 13.0361ZM5.41933 13.0361L11.0851 13.2939L10.5096 16.4672L9.63161 14.6221L7.80789 15.4598L5.41933 13.0361Z" fill="#CC6228"/>
<path d="M5.25977 12.5391L7.9502 15.2691L8.04339 17.9644L5.25977 12.5391ZM19.4814 12.5342L16.6927 17.9691L16.7977 15.2691L19.4814 12.5342ZM10.9542 12.7054L11.0625 13.3869L11.3301 15.0848L11.158 20.2997L10.3448 16.1105L10.3445 16.0671L10.9542 12.7054ZM13.7828 12.6959L14.3941 16.0671L14.3938 16.1105L13.5785 20.3102L13.5462 19.2597L13.419 15.0539L13.7828 12.6959Z" fill="#E27525"/>
<path d="M17.0363 15.1606L16.9453 17.5023L14.1071 19.7136L13.5334 19.3082L14.1765 15.9956L17.0363 15.1606ZM7.71094 15.1606L10.5608 15.9956L11.204 19.3082L10.6302 19.7136L7.79194 17.5021L7.71094 15.1606Z" fill="#F5841F"/>
<path d="M6.65234 20.5806L10.2835 22.3011L10.2681 21.5663L10.5719 21.2996H14.1657L14.4806 21.5654L14.4573 22.2996L18.0655 20.5849L16.3097 22.0358L14.1867 23.4938H10.5428L8.42122 22.0298L6.65234 20.5806Z" fill="#C0AC9D"/>
<path d="M13.7003 19.1387L14.2137 19.5014L14.5145 21.9018L14.0792 21.5342H10.6595L10.2324 21.9092L10.5234 19.5016L11.037 19.1387H13.7003Z" fill="#161616"/>
<path d="M23.133 1.21094L24.3691 4.91941L23.5971 8.66913L24.1469 9.09316L23.403 9.66072L23.9621 10.0925L23.2217 10.7667L23.6762 11.0958L22.47 12.5045L17.5229 11.0641L17.48 11.0411L13.915 8.03378L23.133 1.21094ZM1.60533 1.21094L10.8234 8.03378L7.25827 11.0411L7.21542 11.0641L2.26823 12.5045L1.06205 11.0958L1.51617 10.767L0.776297 10.0925L1.3343 9.66119L0.579234 9.09203L1.1497 8.66772L0.369141 4.91959L1.60533 1.21094Z" fill="#763E1A"/>
<path d="M17.2803 10.7493L22.5222 12.2755L24.2251 17.5241H19.7323L16.6366 17.5631L18.888 13.1749L17.2803 10.7493ZM7.45683 10.7493L5.84892 13.1749L8.10052 17.5631L5.0063 17.5241H0.521484L2.21489 12.2756L7.45683 10.7493ZM15.6858 4.10449L14.2197 8.0644L13.9085 13.4138L13.7895 15.0905L13.78 19.3737H10.9571L10.9479 15.0986L10.8285 13.4124L10.5172 8.0644L9.05123 4.10449H15.6858Z" fill="#F5841F"/>
</g>
<defs>
<clipPath id="clip0_150_323">
<rect width="24" height="24" fill="white" transform="translate(0.369141)"/>
</clipPath>
</defs>
</svg>
