<svg width="48" height="48" viewBox="0 0 48 48" fill="none" xmlns="http://www.w3.org/2000/svg">
<path d="M24 6C23.3506 6 22.8235 6.52706 22.8235 7.17647V9.7546C20.2388 8.94785 18.1176 8.35294 18.1176 8.35294C18.1176 8.35294 26.7176 20.2188 18.1176 29.5294H22.8235V32.6958H19.1746C16.8876 32.6958 15.034 30.8399 15.034 28.5551H4L4.42739 30.4807C5.78739 36.6078 11.2242 41.2941 17.5018 41.2941H28.7059C32.8965 41.2941 36.6183 38.2876 37.943 34.3088C38.2889 33.2735 39.03 32.4154 40.0064 31.9283L44 29.9338V27.1765L34.3447 29.9384L31.0772 32.1167C30.5101 32.4932 29.8432 32.6958 29.1608 32.6958H25.1765V29.5294H30.3419C30.3419 29.5294 42.1476 21.7716 26.3805 10.9081C25.9297 10.7456 25.6157 10.6675 25.1765 10.5175V7.17647C25.1765 6.52706 24.6494 6 24 6ZM15.034 10.6278L6.75735 24.8235H16.4127C16.4127 24.8235 20.5493 17.7266 15.034 10.6278Z" fill="white"/>
</svg>
