<svg width="13" height="24" viewBox="0 0 13 24" fill="none" xmlns="http://www.w3.org/2000/svg">
<g clip-path="url(#clip0_150_318)">
<path fill-rule="evenodd" clip-rule="evenodd" d="M13.0007 4.46952C13.0007 4.19428 12.8225 3.95074 12.5601 3.86751L0.369141 0V5.77778L7.5872 7.97192L1.72253 12V16.8889L3.09276 18.3069L1.92871 19.3677C1.79737 19.4874 1.72253 19.6568 1.72253 19.8345V24L5.78268 20.8889V16L4.56786 14.9489L13.0007 9.77779V4.46952Z" fill="#19A8D6"/>
<path d="M13.0007 4.46952C13.0007 4.19428 12.8225 3.95074 12.5601 3.86751L0.369141 0V5.77778L13.0007 9.77779V4.46952Z" fill="#39D0FF"/>
<path d="M5.78281 16L1.72266 12V16.8889L5.78281 20.8889V16Z" fill="#39D0FF"/>
</g>
<defs>
<clipPath id="clip0_150_318">
<rect width="12.6316" height="24" fill="white" transform="translate(0.369141)"/>
</clipPath>
</defs>
</svg>
